HIERARCHY
ROOT Hips
{
  OFFSET 0 0 0
  CHANNELS 6 Xposition Yposition Zposition Zrotation Xrotation Yrotation
  JOINT Spine
  {
    OFFSET 0 10.1816 0.131521
    CHANNELS 3 Zrotation Xrotation Yrotation
    JOINT Spine1
    {
      OFFSET 0 10.0835 -1.0008
      CHANNELS 3 Zrotation Xrotation Yrotation
      JOINT Spine2
      {
        OFFSET 0 9.10001 -1.37342
        CHANNELS 3 Zrotation Xrotation Yrotation
        JOINT Neck
        {
          OFFSET 0 16.6717 -2.51617
          CHANNELS 3 Zrotation Xrotation Yrotation
          JOINT Head
          {
            OFFSET 0 9.61788 1.68501
            CHANNELS 3 Zrotation Xrotation Yrotation
            End Site
            {
              OFFSET 0 0 0
            }
          }
        }
        JOINT LeftShoulder
        {
          OFFSET 4.57045 10.946 -2.62799
          CHANNELS 3 Zrotation Xrotation Yrotation
          JOINT LeftArm
          {
            OFFSET 10.5924 -0.524583 -2.23212
            CHANNELS 3 Zrotation Xrotation Yrotation
            JOINT LeftForeArm
            {
              OFFSET 27.8415 -8.94286e-05 3.74589e-05
              CHANNELS 3 Zrotation Xrotation Yrotation
              JOINT LeftHand
              {
                OFFSET 28.3288 -1.74407e-05 3.78045e-05
                CHANNELS 3 Zrotation Xrotation Yrotation
                End Site
                {
                  OFFSET 0 0 0
                }
              }
            }
          }
        }
        JOINT RightShoulder
        {
          OFFSET -4.56997 10.9462 -2.62802
          CHANNELS 3 Zrotation Xrotation Yrotation
          JOINT RightArm
          {
            OFFSET -10.5928 -0.524798 -2.2321
            CHANNELS 3 Zrotation Xrotation Yrotation
            JOINT RightForeArm
            {
              OFFSET -27.8415 -3.30792e-05 1.16763e-05
              CHANNELS 3 Zrotation Xrotation Yrotation
              JOINT RightHand
              {
                OFFSET -28.3288 0 5.5816e-05
                CHANNELS 3 Zrotation Xrotation Yrotation
                End Site
                {
                  OFFSET 0 0 0
                }
              }
            }
          }
        }
      }
    }
  }
  JOINT LeftUpLeg
  {
    OFFSET 8.20778 -6.75171 -1.59956
    CHANNELS 3 Zrotation Xrotation Yrotation
    JOINT LeftLeg
    {
      OFFSET 0 -44.3705 0.284643
      CHANNELS 3 Zrotation Xrotation Yrotation
      JOINT LeftFoot
      {
        OFFSET 0 -44.4279 -2.98219
        CHANNELS 3 Zrotation Xrotation Yrotation
        JOINT LeftToeBase
        {
          OFFSET 0 -8.72867 10.7106
          CHANNELS 3 Zrotation Xrotation Yrotation
          End Site
          {
            OFFSET 0 0 0
          }
        }
      }
    }
  }
  JOINT RightUpLeg
  {
    OFFSET -8.2078 -6.75166 -1.59956
    CHANNELS 3 Zrotation Xrotation Yrotation
    JOINT RightLeg
    {
      OFFSET 0 -44.3705 0.286156
      CHANNELS 3 Zrotation Xrotation Yrotation
      JOINT RightFoot
      {
        OFFSET 0 -44.4277 -2.98379
        CHANNELS 3 Zrotation Xrotation Yrotation
        JOINT RightToeBase
        {
          OFFSET 0 -8.72867 10.7106
          CHANNELS 3 Zrotation Xrotation Yrotation
          End Site
          {
            OFFSET 0 0 0
          }
        }
      }
    }
  }
}
MOTION
Frames:	9
Frame Time:	0.0333333
-257.047 138.986 228.252 -2.4811 0.111508 6.9564 1.47217 4.7782 2.31923 2.76295 9.61087 4.53812 2.76294 9.61086 4.53813 -8.23762 24.5498 -7.00207 10.3586 -10.1453 -12.5839 -4.63904 -1.14983 12.5975 -31.5669 -6.94852 16.4345 16.5726 -13.6019 -35.9105 13.2762 -14.6231 10.7462 12.9262 0.141053 -2.46382 51.7301 4.26454 -9.66251 -0.561397 -7.61829 81.1274 -19.8335 14.0001 5.97776 -0.900146 -46.0484 6.93112 -2.30453 34.4461 2.65397 -11.6117 10.0787 2.58753 -8.00747e-07 -4.64885e-06 1.17336e-05 -5.22143 -20.4398 -22.2352 -167.486 58.4762 159.825 0.153873 -13.2168 -6.39949 -8.19291e-07 1.36546e-06 1.00857e-05 
-256.798 134.95 235.96 -3.45224 -0.406019 7.32819 1.84518 4.81486 2.39082 3.50527 9.70049 4.6493 3.50525 9.70049 4.64931 -8.95326 28.5703 -6.66216 10.8643 -13.0864 -12.7837 -2.96103 -0.986715 12.405 -25.6524 -14.7703 15.7549 15.6317 -14.8161 -40.143 14.8411 -12.2075 8.825 13.1695 0.341309 -1.44506 51.7223 5.46585 -13.0815 -1.38522 -9.52872 77.4663 -18.8511 12.8346 3.46772 0.757701 -41.7302 6.27356 -2.6056 34.5556 0.735141 -10.9532 11.2846 1.16025 -8.00747e-07 -4.64885e-06 1.17336e-05 -7.12551 -30.1338 -25.1672 -169.672 49.4477 161.534 0.268549 -14.2728 -7.11874 -8.19291e-07 1.36546e-06 1.00857e-05 
-256.551 130.013 243.951 -5.2648 -1.79714 8.11468 2.40943 5.06893 2.34837 4.63524 10.2285 4.50679 4.63524 10.2285 4.50678 -10.2698 30.5772 -6.01588 11.9892 -13.5183 -13.0527 -1.4385 -0.807423 11.8298 -20.497 -23.1349 15.0687 14.2153 -16.1996 -45.6835 15.7921 -11.406 8.09155 12.2892 0.396942 -1.08316 53.2877 8.21238 -15.4742 -2.80108 -11.6593 72.4884 -18.6075 11.3821 2.45579 3.27329 -36.092 5.81942 -2.46247 33.9511 -0.839669 -10.181 12.754 0.163588 -8.00747e-07 -4.64885e-06 1.17336e-05 -9.34105 -39.6965 -29.5476 -170.057 46.4852 161.219 -0.691604 -15.8482 -7.86262 -8.19291e-07 1.36546e-06 1.00857e-05 
-256.542 124.21 251.656 -7.43472 -3.21277 9.08939 2.9416 5.32592 2.28152 5.70482 10.7585 4.31282 5.70481 10.7585 4.31281 -9.43055 31.8034 -6.19861 12.1057 -13.6476 -12.9526 0.277152 -0.56973 10.4209 -14.7632 -31.6853 15.506 11.1491 -16.4539 -53.4993 18.3615 -10.0214 6.20242 12.4352 0.35924 -1.29616 54.5457 12.328 -16.8931 -4.97411 -14.0364 66.6459 -18.3705 10.6466 1.59798 6.66353 -30.1334 4.96554 -3.1546 31.7272 -0.389764 -10.4234 15.3563 0.531832 -8.00747e-07 -4.64885e-06 1.17336e-05 -11.837 -49.7732 -33.8595 -169.306 51.147 159.536 -0.467158 -15.2152 -8.26096 -8.19291e-07 1.36546e-06 1.00857e-05 
-256.638 117.456 259.106 -9.00532 -4.17713 10.0184 3.22591 5.51045 2.15724 6.28483 11.1307 4.02647 6.28484 11.1307 4.02647 -7.36269 32.9257 -6.52646 11.9469 -13.7648 -12.2999 1.02962 -0.429495 8.87529 -7.73684 -42.8842 16.9054 6.77529 -14.7033 -64.1688 19.0189 -4.0442 4.01018 13.313 0.35455 -1.38728 55.5047 16.0183 -18.0393 -7.25672 -15.539 61.1337 -17.5054 10.6108 0.470314 9.43682 -24.4891 6.56884 -2.02572 28.8958 -0.234435 -11.6006 17.8175 1.55931 -8.00747e-07 -4.64885e-06 1.17336e-05 -14.5508 -57.8707 -36.5057 -166.989 62.3554 156.912 0.203446 -14.4047 -7.84987 -8.19291e-07 1.36546e-06 1.00857e-05 
-256.781 109.942 266.58 -9.75979 -4.26466 10.7199 3.2067 5.48692 1.96369 6.26583 11.0728 3.63993 6.26583 11.0728 3.63993 -5.69397 32.7781 -6.60689 12.198 -12.3805 -11.6472 2.08349 -0.400656 8.93293 -3.79605 -54.2432 16.3767 2.6646 -9.28367 -75.8345 17.4751 0.127318 1.07154 13.7327 0.355685 -1.41205 57.5993 19.6452 -19.1681 -9.53944 -16.4882 56.0498 -16.8613 12.3404 0.30483 10.8764 -19.3331 8.45167 -0.33053 25.7346 1.13467 -12.2122 20.557 3.50707 -8.00747e-07 -4.64885e-06 1.17336e-05 -14.9883 -62.3119 -35.2851 -156.363 79.0921 146.33 1.29474 -15.0778 -7.05666 -8.19291e-07 1.36546e-06 1.00857e-05 
-257.118 102.456 274.365 -7.71137 -4.28632 12.8693 2.78279 5.50136 1.3149 5.47587 11.0591 2.37517 5.47589 11.0591 2.37517 -4.80741 33.236 -6.83303 11.3931 -12.6694 -11.332 1.74219 -0.39866 8.73288 -4.15854 -64.8238 13.1307 1.00988 -1.2999 -87.6554 14.5518 1.20843 -1.0401 13.8461 0.236848 -2.0094 59.5172 22.0682 -19.9992 -10.8271 -16.2463 52.3569 -17.2387 12.7025 0.707039 9.58475 -15.5988 8.72729 -2.7756 31.2159 3.1581 2.84706 0.301871 1.04632 -8.00747e-07 -4.64885e-06 1.17336e-05 -15.5279 -60.5241 -29.9711 -0.975092 77.3574 -8.15229 3.06871 -14.4618 -6.08481 -8.19291e-07 1.36546e-06 1.00857e-05 
-257.593 95.8185 282.407 -2.48304 -4.74722 17.2598 1.70581 5.95715 0.214439 3.41703 11.918 0.251433 3.41704 11.918 0.251413 -2.60085 30.8912 -7.97932 10.8269 -11.6409 -11.3041 1.92806 -0.377328 8.47562 -17.547 -65.3544 0.0294355 1.57474 0.681909 -99.7466 12.5994 1.37316 -2.94692 15.7479 -0.111796 -3.67789 60.0643 22.8653 -19.0749 -11.2659 -15.829 50.5726 -16.5282 12.0727 -0.320456 5.43197 -15.1501 9.2277 0.580687 45.7447 -0.113939 2.67069 -23.1049 0.63228 -8.00747e-07 -4.64885e-06 1.17336e-05 -18.7181 -52.4951 -25.5456 5.00881 51.2323 -11.9127 6.65864 -11.5157 -5.30394 -8.19291e-07 1.36546e-06 1.00857e-05 
-257.474 90.1631 289.652 0.907359 -5.44517 20.4034 0.97954 6.56437 -0.252206 2.00835 13.1233 -0.624411 2.00835 13.1233 -0.624425 -2.50327 29.5073 -8.32268 11.5825 -10.0336 -11.795 -1.34131 -0.220285 5.42504 -27.7865 -57.8517 -9.71815 2.32441 1.20407 -109.14 12.1455 -0.234814 -7.73484 17.3678 -0.734448 -6.29601 61.4036 22.4696 -14.824 -12.8286 -14.6603 44.7754 -17.3928 10.5432 -0.666463 2.19368 -16.0945 0.977593 -2.24986 60.2444 4.34507 -0.483684 -30.048 1.54466 -8.00747e-07 -4.64885e-06 1.17336e-05 -16.8508 -44.4731 -16.9291 3.68024 27.8524 -10.1434 6.13157 -8.12473 -5.75152 -8.19291e-07 1.36546e-06 1.00857e-05 
